<svg viewBox="0 0 1080 1080" fill="none" xmlns="http://www.w3.org/2000/svg">      <defs>  <filter id="filter" x="-20%" y="-20%" width="140%" height="140%" filterUnits="objectBoundingBox" primitiveUnits="userSpaceOnUse" color-interpolation-filters="linearRGB">    <feMorphology operator="dilate" radius="20 20" in="SourceAlpha" result="morphology"/>    <feFlood flood-color="#ffffff" flood-opacity="1" result="flood"/>    <feComposite in="flood" in2="morphology" operator="in" result="composite"/>    <feMerge result="merge">          <feMergeNode in="composite" result="mergeNode"/>      <feMergeNode in="SourceGraphic" result="mergeNode1"/>      </feMerge>  </filter></defs>      <g id="notion-avatar" filter="url(#filter)">        <g id="notion-avatar-face" fill="#ffffff">      <!--?xml version="1.0" encoding="UTF-8"?-->    <title>Face/ 5</title>    <g id="Face/-5" stroke="none" stroke-width="1" fill-rule="evenodd" stroke-linecap="round" stroke-linejoin="round">        <path d="M532,379 C664.54834,379 772,486.45166 772,619 C772,751.54834 704.54834,859 532,859 C405.842528,859 335.866563,801.559592 307.358668,718.866959 C265.336704,716.464588 232,681.625396 232,639 C232,599.134956 261.158843,566.080325 299.312086,560.00055 C325.599297,455.979213 419.809919,379 532,379 Z M295.858895,624.545187 L304.141105,655.454813" id="Path" stroke="#000000" stroke-width="24"/>    </g>    </g><g id="notion-avatar-nose">      <!--?xml version="1.0" encoding="UTF-8"?-->    <title>Nose/ 9</title>    <g id="Nose/-9" stroke="none" stroke-width="1" fill="none" fill-rule="evenodd" stroke-linecap="round" stroke-linejoin="round">        <path d="M631,694.380659 C663.848549,704.811956 684.630284,697.576454 693.345205,672.674154 C706.417587,635.320703 637.033407,606.392531 660.161467,579" id="Path" stroke="#000000" stroke-width="16"/>    </g>    </g><g id="notion-avatar-mouth">      <!--?xml version="1.0" encoding="UTF-8"?-->    <title>Mouth/ 5</title>    <g id="Mouth/-5" stroke="none" stroke-width="1" fill="none" fill-rule="evenodd" stroke-linecap="round" stroke-linejoin="round">        <circle id="Oval" stroke="#000000" stroke-width="16" cx="621" cy="768" r="40"/>    </g>    </g><g id="notion-avatar-eyes">      <!--?xml version="1.0" encoding="UTF-8"?-->    <title>Eyes/ 6</title>    <g id="Eyes/-6" stroke="none" stroke-width="1" fill="none" fill-rule="evenodd">        <g id="Group" transform="translate(518.000000, 518.575690)">            <circle id="Oval" fill="#000000" cx="48.2285714" cy="20" r="20"/>            <path d="M0,22.4243101 C16,9.09097677 32,2.42431011 48,2.42431011 C64,2.42431011 80,9.09097677 96,22.4243101" id="Path" stroke="#000000" stroke-width="12" stroke-linecap="round" stroke-linejoin="round"/>            <circle id="Oval" fill="#000000" transform="translate(193.771429, 20.000000) scale(-1, 1) translate(-193.771429, -20.000000) " cx="193.771429" cy="20" r="20"/>            <path d="M146,22.4243101 C162,9.09097677 178,2.42431011 194,2.42431011 C210,2.42431011 226,9.09097677 242,22.4243101" id="Path" stroke="#000000" stroke-width="12" stroke-linecap="round" stroke-linejoin="round" transform="translate(194.000000, 12.424310) scale(-1, 1) translate(-194.000000, -12.424310) "/>        </g>    </g>    </g><g id="notion-avatar-eyebrows">      <!--?xml version="1.0" encoding="UTF-8"?-->    <title>Eyebrows/ 5</title>    <g id="Eyebrows/-5" stroke="none" stroke-width="1" fill="none" fill-rule="evenodd" stroke-linecap="round" stroke-linejoin="round">        <g id="Group" transform="translate(517.000000, 471.000000)" stroke="#000000" stroke-width="24">            <line x1="1" y1="27.4172651" x2="76.8548788" y2="2" id="Path" transform="translate(38.927439, 14.708633) rotate(2.524843) translate(-38.927439, -14.708633) "/>            <line x1="166" y1="27.4172651" x2="241.854879" y2="2" id="Path" transform="translate(203.927439, 14.708633) scale(-1, 1) rotate(2.524843) translate(-203.927439, -14.708633) "/>        </g>    </g>    </g><g id="notion-avatar-glasses">      <!--?xml version="1.0" encoding="UTF-8"?-->    <title>Glasses/ 4</title>    <g id="Glasses/-4" stroke="none" stroke-width="1" fill="none" fill-rule="evenodd" stroke-linecap="round" stroke-linejoin="round">        <g id="Group" transform="translate(289.000000, 479.000000)" fill="#000000" stroke="#000000" stroke-width="4">            <path d="M229.149255,4.2334278 C247.672154,8.12981325 283.261021,21.6236388 324.690343,35.0615291 L325.464481,35.3078466 C331.11768,37.0729902 339.032765,38.8353007 349.209737,40.594778 L349.209737,57.984989 C344.161954,60.5093754 341.061801,62.8807678 339.909277,65.0991662 C325.535839,92.7654109 298.479956,110.946086 257.050634,101.460516 C200.767297,88.5740028 181.801459,20.8331746 180.110466,9.76667675 C178.419474,-1.29982114 196.205221,-2.69651627 229.149255,4.2334278 Z M519.889534,9.76667675 C518.198541,20.8331746 499.232703,88.5740028 442.949366,101.460516 C401.520044,110.946086 374.464161,92.7654109 360.090723,65.0991662 C358.969348,62.9407245 356.004199,60.637447 351.195275,58.1893337 L350.790263,57.984989 L350.790263,40.594778 L352.195626,40.3492512 C362.16219,38.5895103 369.866867,36.8269363 375.309657,35.0615291 L377.788318,34.2552658 C418.155707,21.0877247 452.698304,8.05188555 470.850745,4.2334278 L472.809163,3.82763387 C504.498419,-2.63678054 521.546707,-1.07849118 519.889534,9.76667675 Z M213.93032,27.1568877 C197.020393,46.9184911 229.149255,89.6035544 261.278116,97.5081958 C293.406978,105.412837 334.836299,80.9084489 327.226832,57.984989 C319.617364,35.0615291 239.295211,8.97621262 213.93032,27.1568877 Z M486.06968,27.1568877 C460.704789,8.97621262 380.382636,35.0615291 372.773168,57.984989 C365.163701,80.9084489 406.593022,105.412837 438.721884,97.5081958 C470.850745,89.6035544 502.979607,46.9184911 486.06968,27.1568877 Z" id="Combined-Shape"/>            <polygon id="Path" points="199 30 4 62 0 71 199 51"/>        </g>    </g>    </g><g id="notion-avatar-hair">      <g id="Hairstyle/ 45"><path id="Path" fill-rule="evenodd" clip-rule="evenodd" d="M292.971 564.825C277.873 567.272 258.567 554.108 246.937 532.237C233.584 507.123 235.409 480.039 251.014 471.742C252.305 471.055 253.651 470.519 255.04 470.126C243.353 453.821 242.471 429.447 254.565 408.5C260.569 398.1 268.904 390.048 278.219 384.817C275.44 369.838 277.642 354.211 285.597 340.432C293.987 325.9 307.357 315.882 322.718 311.056C323.667 302.497 326.329 294.076 330.847 286.25C343.211 264.836 366.387 253.224 390.812 253.583C398.178 228.269 419.208 210 444 210C454.193 210 463.75 213.088 471.982 218.483C484.406 205.889 502.217 198 522 198C543.277 198 562.272 207.126 574.741 221.414C585.992 214.179 599.274 210 613.5 210C654.093 210 687 244.026 687 286L686.998 286.645C689.603 286.22 692.277 286 695 286C723.167 286 746 309.505 746 338.5C746 347.535 743.783 356.037 739.878 363.461C761.167 393.857 753.207 421.37 716 446C694.607 460.162 604.369 465.353 550.694 460.999C511.12 457.789 428.105 430.958 412 428C404.393 426.603 415.06 436.603 444 458C409.921 485.157 392.711 504.618 392.37 516.385L392.365 516.739C392.365 528.233 383.925 572.725 367.044 650.214L366 655L328.117 564.825L292.971 564.825Z" fill="black" stroke="black" stroke-width="12" stroke-linecap="round" stroke-linejoin="round"/></g>    </g><g id="notion-avatar-accessories">      <!--?xml version="1.0" encoding="UTF-8"?-->    <title>Accessories/ 0</title>    <g id="Accessories/-0" stroke="none" stroke-width="1" fill="none" fill-rule="evenodd"/>    </g><g id="notion-avatar-details">      <!--?xml version="1.0" encoding="UTF-8"?-->    <title>Details/ 0</title>    <g id="Details/-0" stroke="none" stroke-width="1" fill="none" fill-rule="evenodd"/>    </g><g id="notion-avatar-beard">      <!--?xml version="1.0" encoding="UTF-8"?-->    <title>Beard/ 0</title>    <g id="Beard/-0" stroke="none" stroke-width="1" fill="none" fill-rule="evenodd"/>    </g>      </g>      </svg>